<mxfile host="65bd71144e">
    <diagram id="ExdccTZqctQwAvQB16s_" name="Page-1">
        <mxGraphModel dx="2921" dy="2017" grid="1" gridSize="10" guides="1" tooltips="1" connect="1" arrows="1" fold="1" page="0" pageScale="1" pageWidth="827" pageHeight="1169" background="none" math="0" shadow="0">
            <root>
                <mxCell id="0"/>
                <mxCell id="1" parent="0"/>
                <mxCell id="2M91R3iAnrZrVvDSjcHK-1" value="Node A" style="rounded=0;whiteSpace=wrap;html=1;fontSize=14;fontStyle=1" parent="1" vertex="1">
                    <mxGeometry x="40" width="160" height="41" as="geometry"/>
                </mxCell>
                <mxCell id="2M91R3iAnrZrVvDSjcHK-2" value="Node B" style="rounded=0;whiteSpace=wrap;html=1;fontSize=14;fontStyle=1" parent="1" vertex="1">
                    <mxGeometry x="400" y="2" width="160" height="39" as="geometry"/>
                </mxCell>
                <mxCell id="2M91R3iAnrZrVvDSjcHK-4" value="Bootstrap node" style="rounded=0;whiteSpace=wrap;html=1;fontSize=14;" parent="1" vertex="1">
                    <mxGeometry x="760" y="1" width="160" height="40" as="geometry"/>
                </mxCell>
                <mxCell id="2M91R3iAnrZrVvDSjcHK-28" value="" style="endArrow=none;dashed=1;html=1;fontSize=12;entryX=0.5;entryY=1;entryDx=0;entryDy=0;" parent="1" target="2M91R3iAnrZrVvDSjcHK-1" edge="1">
                    <mxGeometry width="50" height="50" relative="1" as="geometry">
                        <mxPoint x="120" y="1680" as="sourcePoint"/>
                        <mxPoint x="570" y="240" as="targetPoint"/>
                    </mxGeometry>
                </mxCell>
                <mxCell id="2M91R3iAnrZrVvDSjcHK-29" value="" style="endArrow=none;dashed=1;html=1;fontSize=12;entryX=0.5;entryY=1;entryDx=0;entryDy=0;" parent="1" target="2M91R3iAnrZrVvDSjcHK-2" edge="1">
                    <mxGeometry width="50" height="50" relative="1" as="geometry">
                        <mxPoint x="480" y="1660" as="sourcePoint"/>
                        <mxPoint x="560" y="181" as="targetPoint"/>
                    </mxGeometry>
                </mxCell>
                <mxCell id="2M91R3iAnrZrVvDSjcHK-52" value="" style="endArrow=classic;html=1;fontSize=18;" parent="1" edge="1">
                    <mxGeometry x="-160" y="-181" width="50" height="50" as="geometry">
                        <mxPoint x="120" y="119" as="sourcePoint"/>
                        <mxPoint x="840" y="119" as="targetPoint"/>
                    </mxGeometry>
                </mxCell>
                <mxCell id="16" value="FINDNODE (target = Node B)" style="edgeLabel;html=1;align=center;verticalAlign=middle;resizable=0;points=[];fontSize=14;" parent="2M91R3iAnrZrVvDSjcHK-52" vertex="1" connectable="0">
                    <mxGeometry relative="1" as="geometry">
                        <mxPoint x="-260" y="-19" as="offset"/>
                    </mxGeometry>
                </mxCell>
                <mxCell id="12" value="" style="endArrow=none;dashed=1;html=1;fontSize=12;entryX=0.5;entryY=1;entryDx=0;entryDy=0;" parent="1" edge="1">
                    <mxGeometry width="50" height="50" relative="1" as="geometry">
                        <mxPoint x="839" y="799" as="sourcePoint"/>
                        <mxPoint x="839" y="41" as="targetPoint"/>
                    </mxGeometry>
                </mxCell>
                <mxCell id="13" value="Node A and Node B want to find their the other node." style="shape=note;whiteSpace=wrap;html=1;backgroundOutline=1;darkOpacity=0.05;" parent="1" vertex="1">
                    <mxGeometry x="90" y="-90" width="400" height="70" as="geometry"/>
                </mxCell>
                <mxCell id="14" value="This green colored sequence is a communication started from Node A." style="shape=note;whiteSpace=wrap;html=1;backgroundOutline=1;darkOpacity=0.05;" parent="1" vertex="1">
                    <mxGeometry x="-270" y="130" width="285" height="100" as="geometry"/>
                </mxCell>
                <mxCell id="21" value="" style="endArrow=classic;html=1;fontSize=18;" parent="1" edge="1">
                    <mxGeometry x="200" y="-211" width="50" height="50" as="geometry">
                        <mxPoint x="840" y="199" as="sourcePoint"/>
                        <mxPoint x="120" y="199" as="targetPoint"/>
                    </mxGeometry>
                </mxCell>
                <mxCell id="22" value="NODES (Node B)" style="edgeLabel;html=1;align=center;verticalAlign=middle;resizable=0;points=[];fontSize=14;" parent="21" vertex="1" connectable="0">
                    <mxGeometry relative="1" as="geometry">
                        <mxPoint x="299" y="-12" as="offset"/>
                    </mxGeometry>
                </mxCell>
                <mxCell id="25" value="&lt;span style=&quot;font-size: 12px&quot;&gt;Session Established&lt;br&gt;(Outgoing)&lt;br&gt;&lt;/span&gt;" style="rounded=1;whiteSpace=wrap;html=1;fontSize=14;strokeColor=#58E800;" parent="1" vertex="1">
                    <mxGeometry y="470" width="270" height="58" as="geometry"/>
                </mxCell>
                <mxCell id="32" value="" style="endArrow=classic;html=1;fontSize=18;" edge="1" parent="1">
                    <mxGeometry x="200" y="-140" width="50" height="50" as="geometry">
                        <mxPoint x="480" y="160" as="sourcePoint"/>
                        <mxPoint x="840" y="160" as="targetPoint"/>
                    </mxGeometry>
                </mxCell>
                <mxCell id="33" value="FINDNODE (target = Node A)" style="edgeLabel;html=1;align=center;verticalAlign=middle;resizable=0;points=[];fontSize=14;" vertex="1" connectable="0" parent="32">
                    <mxGeometry relative="1" as="geometry">
                        <mxPoint x="-80" y="-10" as="offset"/>
                    </mxGeometry>
                </mxCell>
                <mxCell id="34" value="" style="endArrow=classic;html=1;fontSize=18;" edge="1" parent="1">
                    <mxGeometry x="210" y="-170" width="50" height="50" as="geometry">
                        <mxPoint x="840" y="240" as="sourcePoint"/>
                        <mxPoint x="480" y="240" as="targetPoint"/>
                    </mxGeometry>
                </mxCell>
                <mxCell id="35" value="NODES (Node A)" style="edgeLabel;html=1;align=center;verticalAlign=middle;resizable=0;points=[];fontSize=14;" vertex="1" connectable="0" parent="34">
                    <mxGeometry relative="1" as="geometry">
                        <mxPoint x="120" y="-10" as="offset"/>
                    </mxGeometry>
                </mxCell>
                <mxCell id="36" value="" style="endArrow=classic;html=1;fontSize=18;fillColor=#60a917;strokeColor=#58E800;" edge="1" parent="1">
                    <mxGeometry x="-160" y="20" width="50" height="50" as="geometry">
                        <mxPoint x="120" y="320" as="sourcePoint"/>
                        <mxPoint x="480" y="320" as="targetPoint"/>
                    </mxGeometry>
                </mxCell>
                <mxCell id="37" value="Random packets to start session" style="edgeLabel;html=1;align=center;verticalAlign=middle;resizable=0;points=[];fontSize=14;" vertex="1" connectable="0" parent="36">
                    <mxGeometry relative="1" as="geometry">
                        <mxPoint x="-70" y="-10" as="offset"/>
                    </mxGeometry>
                </mxCell>
                <mxCell id="38" value="Bootstrap node's routing table contains both of Node A and Node B." style="shape=note;whiteSpace=wrap;html=1;backgroundOutline=1;darkOpacity=0.05;" vertex="1" parent="1">
                    <mxGeometry x="700" y="-90" width="420" height="70" as="geometry"/>
                </mxCell>
                <mxCell id="39" value="" style="endArrow=classic;html=1;fontSize=18;strokeColor=#58E800;" edge="1" parent="1">
                    <mxGeometry x="200" y="-50" width="50" height="50" as="geometry">
                        <mxPoint x="480" y="360" as="sourcePoint"/>
                        <mxPoint x="120" y="360" as="targetPoint"/>
                    </mxGeometry>
                </mxCell>
                <mxCell id="40" value="WHOAREYOU" style="edgeLabel;html=1;align=center;verticalAlign=middle;resizable=0;points=[];fontSize=14;" vertex="1" connectable="0" parent="39">
                    <mxGeometry relative="1" as="geometry">
                        <mxPoint x="120" y="-10" as="offset"/>
                    </mxGeometry>
                </mxCell>
                <mxCell id="41" value="" style="endArrow=classic;html=1;fontSize=18;fillColor=#e3c800;strokeColor=#FFBC21;" edge="1" parent="1">
                    <mxGeometry x="-150" y="30" width="50" height="50" as="geometry">
                        <mxPoint x="480" y="400" as="sourcePoint"/>
                        <mxPoint x="120" y="400" as="targetPoint"/>
                    </mxGeometry>
                </mxCell>
                <mxCell id="42" value="Random packets to start session" style="edgeLabel;html=1;align=center;verticalAlign=middle;resizable=0;points=[];fontSize=14;" vertex="1" connectable="0" parent="41">
                    <mxGeometry relative="1" as="geometry">
                        <mxPoint x="70" y="-10" as="offset"/>
                    </mxGeometry>
                </mxCell>
                <mxCell id="43" value="" style="endArrow=classic;html=1;fontSize=18;fillColor=#60a917;strokeColor=#58E800;" edge="1" parent="1">
                    <mxGeometry x="-160" y="140" width="50" height="50" as="geometry">
                        <mxPoint x="120" y="440" as="sourcePoint"/>
                        <mxPoint x="480" y="440" as="targetPoint"/>
                    </mxGeometry>
                </mxCell>
                <mxCell id="44" value="Authentication response" style="edgeLabel;html=1;align=center;verticalAlign=middle;resizable=0;points=[];fontSize=14;" vertex="1" connectable="0" parent="43">
                    <mxGeometry relative="1" as="geometry">
                        <mxPoint x="-100" y="-12" as="offset"/>
                    </mxGeometry>
                </mxCell>
                <mxCell id="45" value="&lt;span style=&quot;font-size: 12px&quot;&gt;Decryption failed&lt;br&gt;Message is not encrypted with known sesion keys&lt;br&gt;&lt;/span&gt;" style="rounded=1;whiteSpace=wrap;html=1;fontSize=14;strokeColor=#FFBC21;" vertex="1" parent="1">
                    <mxGeometry x="-10" y="560" width="290" height="58" as="geometry"/>
                </mxCell>
                <mxCell id="46" value="" style="endArrow=classic;html=1;fontSize=18;fillColor=#e3c800;strokeColor=#FFBC21;" edge="1" parent="1">
                    <mxGeometry x="-140" y="120" width="50" height="50" as="geometry">
                        <mxPoint x="120" y="760" as="sourcePoint"/>
                        <mxPoint x="480" y="760" as="targetPoint"/>
                    </mxGeometry>
                </mxCell>
                <mxCell id="47" value="WHOAREYOU" style="edgeLabel;html=1;align=center;verticalAlign=middle;resizable=0;points=[];fontSize=14;" vertex="1" connectable="0" parent="46">
                    <mxGeometry relative="1" as="geometry">
                        <mxPoint x="-130" y="-10" as="offset"/>
                    </mxGeometry>
                </mxCell>
                <mxCell id="48" value="&lt;span style=&quot;font-size: 12px&quot;&gt;Session Established&lt;br&gt;(Incoming)&lt;br&gt;&lt;/span&gt;" style="rounded=1;whiteSpace=wrap;html=1;fontSize=14;strokeColor=#58E800;" vertex="1" parent="1">
                    <mxGeometry x="335" y="640" width="270" height="58" as="geometry"/>
                </mxCell>
                <mxCell id="49" value="" style="endArrow=classic;html=1;fontSize=18;fillColor=#e3c800;strokeColor=#FFBC21;" edge="1" parent="1">
                    <mxGeometry x="-150" y="430" width="50" height="50" as="geometry">
                        <mxPoint x="480" y="800" as="sourcePoint"/>
                        <mxPoint x="120" y="800" as="targetPoint"/>
                    </mxGeometry>
                </mxCell>
                <mxCell id="50" value="Authentication response" style="edgeLabel;html=1;align=center;verticalAlign=middle;resizable=0;points=[];fontSize=14;" vertex="1" connectable="0" parent="49">
                    <mxGeometry relative="1" as="geometry">
                        <mxPoint x="100" y="-10" as="offset"/>
                    </mxGeometry>
                </mxCell>
                <mxCell id="51" value="&lt;span style=&quot;font-size: 12px&quot;&gt;Session Established&lt;/span&gt;&lt;br style=&quot;font-size: 12px&quot;&gt;&lt;span style=&quot;font-size: 12px&quot;&gt;(Outgoing)&lt;/span&gt;&lt;span style=&quot;font-size: 12px&quot;&gt;&lt;br&gt;&lt;/span&gt;" style="rounded=1;whiteSpace=wrap;html=1;fontSize=14;strokeColor=#FFBC21;" vertex="1" parent="1">
                    <mxGeometry x="335" y="840" width="290" height="58" as="geometry"/>
                </mxCell>
                <mxCell id="52" value="&lt;span style=&quot;font-size: 12px&quot;&gt;Remove session&lt;br&gt;&lt;/span&gt;" style="rounded=1;whiteSpace=wrap;html=1;fontSize=14;strokeColor=#FFBC21;" vertex="1" parent="1">
                    <mxGeometry x="-10" y="640" width="290" height="58" as="geometry"/>
                </mxCell>
                <mxCell id="53" value="" style="endArrow=classic;html=1;fontSize=18;strokeColor=#58E800;" edge="1" parent="1">
                    <mxGeometry x="200" y="550" width="50" height="50" as="geometry">
                        <mxPoint x="480" y="960" as="sourcePoint"/>
                        <mxPoint x="120" y="960" as="targetPoint"/>
                    </mxGeometry>
                </mxCell>
                <mxCell id="54" value="NODES (Node B)" style="edgeLabel;html=1;align=center;verticalAlign=middle;resizable=0;points=[];fontSize=14;" vertex="1" connectable="0" parent="53">
                    <mxGeometry relative="1" as="geometry">
                        <mxPoint x="120" y="-10" as="offset"/>
                    </mxGeometry>
                </mxCell>
                <mxCell id="55" value="&lt;span style=&quot;font-size: 12px&quot;&gt;Session Established&lt;br&gt;(Incoming)&lt;br&gt;&lt;/span&gt;" style="rounded=1;whiteSpace=wrap;html=1;fontSize=14;strokeColor=#FFBC21;" vertex="1" parent="1">
                    <mxGeometry x="-20" y="1010" width="290" height="58" as="geometry"/>
                </mxCell>
                <mxCell id="56" value="&lt;span style=&quot;font-size: 12px&quot;&gt;Decryption failed&lt;/span&gt;&lt;br style=&quot;font-size: 12px&quot;&gt;&lt;span style=&quot;font-size: 12px&quot;&gt;Message is not encrypted with known sesion keys&lt;/span&gt;&lt;span style=&quot;font-size: 12px&quot;&gt;&lt;br&gt;&lt;/span&gt;" style="rounded=1;whiteSpace=wrap;html=1;fontSize=14;strokeColor=#58E800;" vertex="1" parent="1">
                    <mxGeometry x="-20" y="1107.21" width="290" height="58" as="geometry"/>
                </mxCell>
                <mxCell id="57" value="&lt;span style=&quot;font-size: 12px&quot;&gt;Remove session&lt;br&gt;&lt;/span&gt;" style="rounded=1;whiteSpace=wrap;html=1;fontSize=14;strokeColor=#58E800;" vertex="1" parent="1">
                    <mxGeometry x="-20" y="1180" width="290" height="58" as="geometry"/>
                </mxCell>
                <mxCell id="58" value="&lt;span style=&quot;font-size: 12px&quot;&gt;Session is not established&lt;br&gt;Dropping response for Node B&lt;br&gt;&lt;/span&gt;" style="rounded=1;whiteSpace=wrap;html=1;fontSize=14;strokeColor=#FFBC21;" vertex="1" parent="1">
                    <mxGeometry x="-20" y="1340" width="290" height="58" as="geometry"/>
                </mxCell>
                <mxCell id="59" value="WARN" style="text;html=1;align=center;verticalAlign=middle;resizable=0;points=[];autosize=1;strokeColor=none;fillColor=none;fontSize=14;fontColor=#F7FF19;fontStyle=1" vertex="1" parent="1">
                    <mxGeometry x="-30" y="1320" width="60" height="20" as="geometry"/>
                </mxCell>
                <mxCell id="60" value="This orange colored sequence is a communication started from Node B." style="shape=note;whiteSpace=wrap;html=1;backgroundOutline=1;darkOpacity=0.05;" vertex="1" parent="1">
                    <mxGeometry x="900" y="300" width="285" height="100" as="geometry"/>
                </mxCell>
                <mxCell id="61" value="" style="endArrow=none;dashed=1;html=1;dashPattern=1 3;strokeWidth=2;fontSize=14;fontColor=#F7FF19;entryX=0.5;entryY=1;entryDx=0;entryDy=0;entryPerimeter=0;" edge="1" parent="1" target="14">
                    <mxGeometry width="50" height="50" relative="1" as="geometry">
                        <mxPoint x="110" y="300" as="sourcePoint"/>
                        <mxPoint x="-360" y="420" as="targetPoint"/>
                    </mxGeometry>
                </mxCell>
                <mxCell id="65" value="At this point the session has already been removed, Node A can't send response." style="shape=note;whiteSpace=wrap;html=1;backgroundOutline=1;darkOpacity=0.05;fontStyle=1" vertex="1" parent="1">
                    <mxGeometry x="-380" y="1211" width="285" height="100" as="geometry"/>
                </mxCell>
                <mxCell id="62" value="" style="endArrow=none;dashed=1;html=1;dashPattern=1 3;strokeWidth=2;fontSize=14;fontColor=#F7FF19;exitX=0;exitY=0.5;exitDx=0;exitDy=0;exitPerimeter=0;" edge="1" parent="1" source="60">
                    <mxGeometry width="50" height="50" relative="1" as="geometry">
                        <mxPoint x="120" y="310" as="sourcePoint"/>
                        <mxPoint x="490" y="380" as="targetPoint"/>
                    </mxGeometry>
                </mxCell>
                <mxCell id="63" value="&lt;span style=&quot;font-size: 12px&quot;&gt;Request timed out&lt;br&gt;&lt;/span&gt;" style="rounded=1;whiteSpace=wrap;html=1;fontSize=14;strokeColor=#FFBC21;" vertex="1" parent="1">
                    <mxGeometry x="325" y="1440" width="290" height="58" as="geometry"/>
                </mxCell>
                <mxCell id="31" value="" style="shape=cross;whiteSpace=wrap;html=1;fontSize=12;rotation=45;fillColor=#E31E4C;fontColor=#000000;strokeColor=#B09500;" parent="1" vertex="1">
                    <mxGeometry x="-381" y="1183.21" width="50" height="50" as="geometry"/>
                </mxCell>
                <mxCell id="66" value="" style="endArrow=none;dashed=1;html=1;dashPattern=1 3;strokeWidth=2;fontSize=14;fontColor=#F7FF19;entryX=0;entryY=0;entryDx=285;entryDy=65;entryPerimeter=0;exitX=0;exitY=0.5;exitDx=0;exitDy=0;" edge="1" parent="1" source="58" target="65">
                    <mxGeometry width="50" height="50" relative="1" as="geometry">
                        <mxPoint x="120" y="310" as="sourcePoint"/>
                        <mxPoint x="-117.5" y="240" as="targetPoint"/>
                    </mxGeometry>
                </mxCell>
                <mxCell id="68" value="&lt;span style=&quot;font-size: 12px&quot;&gt;Set Node A disconnected&lt;br&gt;&lt;/span&gt;" style="rounded=1;whiteSpace=wrap;html=1;fontSize=14;strokeColor=#FFBC21;" vertex="1" parent="1">
                    <mxGeometry x="325" y="1530" width="290" height="58" as="geometry"/>
                </mxCell>
                <mxCell id="69" value="" style="endArrow=classic;html=1;fontSize=18;strokeColor=#58E800;" edge="1" parent="1">
                    <mxGeometry x="210" y="850.5" width="50" height="50" as="geometry">
                        <mxPoint x="120" y="1280" as="sourcePoint"/>
                        <mxPoint x="480" y="1280" as="targetPoint"/>
                    </mxGeometry>
                </mxCell>
                <mxCell id="70" value="WHOAREYOU" style="edgeLabel;html=1;align=center;verticalAlign=middle;resizable=0;points=[];fontSize=14;" vertex="1" connectable="0" parent="69">
                    <mxGeometry relative="1" as="geometry">
                        <mxPoint x="-130" y="-10" as="offset"/>
                    </mxGeometry>
                </mxCell>
                <mxCell id="71" value="&lt;span style=&quot;font-size: 12px&quot;&gt;Received WHOAREYOU packet that references an unknown or expired request.&lt;br&gt;&lt;/span&gt;" style="rounded=1;whiteSpace=wrap;html=1;fontSize=14;strokeColor=#58E800;" vertex="1" parent="1">
                    <mxGeometry x="325" y="1340" width="290" height="58" as="geometry"/>
                </mxCell>
                <mxCell id="72" value="&lt;span style=&quot;font-size: 12px&quot;&gt;Request timed out&lt;br&gt;&lt;/span&gt;" style="rounded=1;whiteSpace=wrap;html=1;fontSize=14;strokeColor=#58E800;" vertex="1" parent="1">
                    <mxGeometry x="-25" y="1440" width="290" height="58" as="geometry"/>
                </mxCell>
                <mxCell id="74" value="&lt;span style=&quot;font-size: 12px&quot;&gt;Set Node B disconnected&lt;br&gt;&lt;/span&gt;" style="rounded=1;whiteSpace=wrap;html=1;fontSize=14;strokeColor=#58E800;" vertex="1" parent="1">
                    <mxGeometry x="-30" y="1530" width="290" height="58" as="geometry"/>
                </mxCell>
                <mxCell id="75" value="Both of these communication, green and orange, resulted in failure that the target node could not found." style="shape=note;whiteSpace=wrap;html=1;backgroundOutline=1;darkOpacity=0.05;fontStyle=1" vertex="1" parent="1">
                    <mxGeometry x="30" y="1730" width="552.5" height="100" as="geometry"/>
                </mxCell>
            </root>
        </mxGraphModel>
    </diagram>
</mxfile>